Original title: High Anxiety
Released: 1977
Country: USA
Studio: Twentieth Century Fox Film Corporation, Crossbow Productions
Genre: comedy, thriller
Director: Mel Brooks / Mel Brooks
Scenario: Mel Brooks, Ron Clark, Rudy De Luca
Producer: Mel Brooks
Operator: Paul Lohmann
Composer: John Morris
Artist: Peter Woolley, Patricia Norris, Richard D. Kent
Installation: John C. Howard
Cast: Mel Brooks / Mel Brooks, Madeline Kahn / Madeline Kahn, Cloris Lichmen / Cloris Leachman, Harvey Corman / Harvey Korman, Ron Carey / Harvey Carey, Howard Morris / Howard Morris, Dick Van Patten / Dick Van Patten, Jack Riley / Jack Riley, Kellas Charlie / Charlie Callas, Ron Clark / Ron Clark, Rudy De Luca / Rudy De Luca, Barry Levinson / Barry Levinson, Albert Whitlock, J., Pearl Shear

About movie: Dr. Robert Thorndike was appointed director of the Mental Hospital for a very, very nervous. In the process, he begins to pick up vibes fill this place of evil, and he himself becomes a victim of acrophobia, which makes it the same nerve, as well as patients, he tries to heal. Each new case - a stinging laughter incredible test, which eventually leads our hero to resist the inherent fear of heights and he fears for his life and for the premises of the institution.


Format: Matroska
File size: 6.86 GiB
Duration: 1h 34mn
Overall bit rate: 10.4 Mbps
Encoded date: UTC 2011-02-04 21:51:58
Writing application: mkvmerge v4.4.0 ('Die Wiederkehr') built on Oct 31, 2010 21:52:48
Writing library: libebml v1.0.0 + libmatroska v1.0.0

Video
ID: 1
Format: AVC
Format / Info: Advanced Video Codec
Format profile: High@L4.1
Format settings, CABAC: Yes
Format settings, ReFrames: 4 frames
Codec ID: V_MPEG4/ISO/AVC
Duration: 1h 34mn
Bit rate: 8471 Kbps
Width: 1920 pixels
Height: 1040 pixels
Display aspect ratio: 16:9
Frame rate: 23.976 fps
Color space: YUV
Chroma subsampling: 4:2:0
Bit depth: 8 bits
Scan type: Progressive
Bits / (Pixel * Frame): 0.177
Stream size: 5.43 GiB (79%)
Writing library: x264 core 79 r1332 70f8869
Language: English

Audio # 1
ID: 2
Format: AC-3
Format / Info: Audio Coding 3
Mode extension: CM (complete main)
Codec ID: A_AC3
Duration: 1h 34mn
Bit rate mode: Constant
Bit rate: 448 Kbps
Channel (s): 6 channels
Channel positions: Front: L C R, Side: L R, LFE
Sampling rate: 48.0 KHz
Bit depth: 16 bits
Compression mode: Lossy
Delay relative to video: 98ms
Stream size: 302 MiB (4%)
Title: Russian DD'5 .1 (Mikhalyov)
Language: Russian

Audio # 2
ID: 3
Format: DTS
Format / Info: Digital Theater Systems
Codec ID: A_DTS
Duration: 1h 34mn
Bit rate mode: Constant
Bit rate: 1510 Kbps
Channel (s): 6 channels
Channel positions: Front: L C R, Side: L R, LFE
Sampling rate: 48.0 KHz
Bit depth: 24 bits
Compression mode: Lossy
Stream size: 1016 MiB (14%)
Title: English DTS'5 .1
Language: English

Text # 1
ID: 4
Format: UTF-8
Codec ID: S_TEXT/UTF8
Codec ID / Info: UTF-8 Plain Text
Title: English
Language: English

Text # 2
ID: 5
Format: UTF-8
Codec ID: S_TEXT/UTF8
Codec ID / Info: UTF-8 Plain Text
Title: French
Language: French

Text # 3
ID: 6
Format: UTF-8
Codec ID: S_TEXT/UTF8
Codec ID / Info: UTF-8 Plain Text
Title: German
Language: German

Text # 4
ID: 7
Format: UTF-8
Codec ID: S_TEXT/UTF8
Codec ID / Info: UTF-8 Plain Text
Title: Italian
Language: Italian

Text # 5
ID: 8
Format: UTF-8
Codec ID: S_TEXT/UTF8
Codec ID / Info: UTF-8 Plain Text
Title: Spanish
Language: Spanish